<svg version="1.0" xmlns="http://www.w3.org/2000/svg" width="1333.333" height="1333.333" viewBox="0 0 1000 1000"><path d="M436.8 212.7c-3.6 2.3-4.6 7-5.4 26.8-.3 8.8-1 16.5-1.5 17.1-.5.6-1.2 4.4-1.5 8.5-.4 4.1-1.2 8-1.7 8.7-1.2 1.5-7.1 1-10.5-.7-.9-.5-5.3-2.4-9.7-4.1-4.4-1.8-10.4-4.3-13.3-5.6-2.9-1.3-5.6-2.4-6-2.4-.8 0-12.5-4.6-16.2-6.4-1.4-.7-5.1-2.1-8.3-3.1-5.3-1.8-6.1-1.8-8.5-.4-4.9 2.7-5.2 4.8-3.7 22.3 1 11 1.5 33.8 1.6 73.2l.1 57.1-2.3 2.8c-1.3 1.5-3.6 4.1-5.1 5.9-4.2 4.7-6.1 9.2-4.9 11.4 1.3 2.5 13 13.1 15.6 14.3 1.1.5 4.7 2.9 8 5.4 3.3 2.5 6.7 4.8 7.5 5.2.8.4 2.9 1.7 4.6 3 1.7 1.3 3.4 2.3 3.8 2.3.4 0 2.8 1.7 5.4 3.8 11.5 9.2 17.1 10.9 23.7 7.2 4.1-2.3 4.5-1.8 4.3 4.5-.1 2.2.4 10.1 1.1 17.5 1.3 13.9 1.2 31-.1 31H391v-10.5c0-11.5.1-11.8 7.4-17 2.4-1.7 2.9-2.8 3-6.6.1-6.2.1-6.2-16.7-14.5-1.6-.8-4.1-1.4-5.7-1.4-1.6 0-3.1-.4-3.4-.9-.3-.5-2.6-1.2-5.1-1.5-2.4-.4-4.7-1.1-5-1.7-.4-.5-2.1-.9-4-.9s-4.6-.5-6.2-1.1c-7-2.9-25.3-5.5-29.5-4.3-5.9 1.7-6.4 4-5 22.6.7 8.9 1.2 22 1.2 28.9v12.7l-4.2 3.7c-9.5 8.3-10.8 9.8-10.8 12.6 0 4.1 3.9 8.1 16.9 17.2 21.3 15.1 26.5 17.8 35.1 18.5 8.1.6 12.1-1.6 22.1-11.9l8.7-8.9 58.5-.3 58.6-.2 1.6 2.8c1 1.6 3.1 3.4 4.9 4l3.1 1.1-2.5.7c-1.4.4-5 .8-8 .8-6.1.2-8 1.2-10.2 5.6-1.4 2.7-1.4 3.4.2 7.1 1.8 4.1 6.2 8.3 11 10.3 1.4.6 3.2 1.5 4 2.1.8.5 4.4 2.3 8 3.9 3.6 1.6 8.4 4.6 10.7 6.6 4.5 3.8 11.3 14.3 11.3 17.4 0 1 .7 3.5 1.5 5.4.8 2 1.5 4.9 1.5 6.4.1 3.8 2.7 6.6 8.6 9.4 3.9 1.9 6.4 2.4 12.9 2.3 15.1-.2 41.2-6.4 55.5-13.2 5.9-2.8 9.4-5.5 16.6-12.6 19.1-19.2 24.1-31.5 27.8-69.6.8-8 1.8-21 2.1-29 .3-8 1-18.8 1.6-24 .5-5.2 1.3-15.4 1.8-22.6l.8-13.2 6.6-7.5c7-8 8.9-12.7 6.7-16.7-1.4-2.6-8.7-10-9.9-10-.4 0-2.5-1.3-4.5-2.9-2-1.6-10.2-6.1-18.3-10.1-8.2-3.9-15.6-7.6-16.6-8.1-2.6-1.4-9.7-3.6-13.8-4.3-6-1-9.5 1.1-16.1 9.5-1.4 1.9-4.5 5.8-6.8 8.6l-4 5.3h-13.8c-14.2 0-18.9-1-14-2.9 5.3-2 14.5-9.6 18.7-15.4 4-5.5 4.9-7.2 8.4-15.7 3.3-8.1 6.4-25.8 7.1-40.5.3-6.1.8-14.4 1.2-18.5.4-4.1.7-9.1.6-11-.1-2.7.7-4.4 3.6-7.5 8.3-8.8 12.2-14.4 12.2-17.2 0-3.6-6.1-9.7-17.5-17.7-4.4-3-8.5-5.9-9-6.4-.9-.8-5-3.2-14-8.4-9-5.3-17.9-8.8-22.2-8.8-4.9 0-7.4 2.1-14.4 11.8-3.4 4.8-7.6 10.2-9.3 11.9l-3 3.3h-20.3c-11.2 0-20.3-.3-20.3-.8 0-.9 9.3-13.8 12.3-17 1.2-1.3 4.7-3.6 7.7-5.2 3-1.5 7-3.5 8.7-4.4 3.8-2 7.3-6.1 7.3-8.7 0-2-6.3-7.6-11.2-10-7.1-3.4-10.9-4.9-12.8-4.9-1 0-2.1-.4-2.4-.9-.4-.5-2.5-1.2-4.9-1.6-2.3-.4-4.6-1.1-5.2-1.5-.5-.4-2.3-1-4-1.3-1.6-.3-5.7-1.3-9-2.2-19-5.2-34-6.7-38.7-3.8zm92 97.3c1.1 0 1.2 2.1.8 9.7-.3 5.4-.9 16.1-1.3 23.8-1.1 18.9-1.2 19.1-13.9 20-5.2.4-9.7.5-10 .2-.3-.2-.7-2.5-.9-5-.2-2.5-.8-5.4-1.4-6.6-.6-1.1-1.1-2.8-1.1-3.8s-1.2-4.2-2.7-7.2c-2.7-5.3-10.1-12.3-14.8-14.1-2.7-1-10.4-4.5-18.2-8.1-3.5-1.6-6.9-2.9-7.7-2.9-.7 0-2.7-.7-4.2-1.5-5.6-2.9-11.2-1.8-16.6 3.3-3.6 3.3-3.5 5 .7 11.7 1.9 3 4 6.7 4.7 8.2 1.7 4.4 3.6 17 2.7 18.5-.5.7-.9 5.9-.9 11.5 0 15.4 2.2 18.6 17 24.3 1.9.8 7.7 1.6 12.8 1.8 7.5.3 9.8 0 11.9-1.3 3.2-2.1 8.9-2.2 11.2-.1 1 .9 2.2 1.6 2.8 1.6.6 0 3.1 1.8 5.5 4 4.7 4.1 5.7 6.6 6.1 15.5l.2 4-43.2.3-43.3.2V309.5l51.2.2c28.2.2 51.9.3 52.6.3zm-3.6 141h70.9l-.5 10.7c-.7 16.1-2.3 41.3-3.5 54.3-.6 6.3-1.3 13.5-1.5 16-.9 9.8-4.1 18.2-8.8 22.7-6.4 6.1-11.1 7.8-28.2 10-3.7.5-25-1.7-24.2-2.4.2-.3 5.5-1.1 11.7-1.9 10.8-1.3 15.2-2.1 24.3-4.5 2.4-.7 5.4-2.6 7.9-5.2l3.9-4.2-.6-12c-.4-6.6-.9-17.8-1.3-24.9l-.6-12.8 3.9-3.7c10.1-9.5 11.1-13.4 4.9-18.8-2.1-1.8-4.8-3.3-5.9-3.3-1.2-.1-3.2-.7-4.6-1.5-1.4-.8-3.8-1.4-5.3-1.5-1.6 0-3.6-.4-4.5-.9-.9-.5-4.4-1.2-7.7-1.6-3.3-.3-6.4-1.1-7-1.6-.5-.5-3-.9-5.6-.9-2.5 0-6.5-.7-8.8-1.5-5.7-2-26.2-2.5-28.4-.6-2.2 1.8-2.3 13-.2 30.2.9 6.9 1.5 15.9 1.3 19.8l-.3 7.3h-21l-.3-14.6-.3-14.6 3.7-3.8c4.7-4.7 7.4-9.1 7.4-11.9 0-4.4-10.6-10-27-14.3-2.5-.6-6.7-1.8-9.5-2.5-2.7-.8-6.6-1.6-8.5-1.9-8.1-1.1-16.1-3.2-15.3-4 .4-.4 4.8-.6 9.7-.2 4.9.3 40.8.6 79.8.6zM483 677c-1.4.4-4.6.8-7.2.9-2.6.1-5 .5-5.3 1.1-.3.5-1.6 1-2.7 1-2 0-10.7 5-13.6 7.7-.7.7-2.1 1.8-3 2.5-2.4 1.8-8.6 10.6-10.4 14.8-4.1 9.6-5.1 21.4-2.7 30.5.8 2.7 1.6 5.2 1.9 5.5.3.3 1.4 2.2 2.4 4.2 3.1 6.1 9.6 9.8 17.2 9.8 7.4 0 11.3-2.3 16.7-10 3.1-4.3 5.4-8.6 7.5-14 .5-1.4 1.7-4.2 2.6-6.3.9-2.1 1.6-4.8 1.6-6.1 0-1.2.3-2.6.8-3 .9-1 3.2-11.7 3.9-18.4.3-3.3 1-5.2 1.8-5.2 6.5 0 13.8 5.4 17.9 13.4 2.1 4 2.6 6.2 2.6 12.5-.1 5.1-.5 8.2-1.5 9.5-.8 1.1-1.5 2.8-1.5 3.7 0 2.4-7.7 10-12.8 12.7-2.3 1.2-5.6 2.2-7.2 2.2-1.6 0-3.2.4-3.5 1-.3.5-2.1 1-3.9 1-4.7 0-6.1 2-3.8 5.1 1.1 1.3 2.5 4.1 3.1 6.1 1.2 3.8 1.3 3.8 6.6 3.8 3 0 5.7-.5 6-1 .3-.6 1.5-1 2.5-1 3.6 0 14.6-6.5 19.6-11.6 15.8-16 17-43.7 2.6-59-6.7-7.1-14.2-11.2-23.2-12.5-11.3-1.7-12.6-1.8-15-.9zm-5 16.1c0 .6-.4 1.8-.9 2.7-.5.9-1.2 4.1-1.5 7.1-.4 2.9-.9 5.8-1.3 6.4-.3.6-1 2.7-1.4 4.6-1.3 6.3-5.9 18.1-7.1 18.1-.4 0-.8.5-.8 1.2 0 2.1-3.2 4.8-5.7 4.8-3.6 0-5-2-6.3-8.8-2.7-13.3 4.7-28.7 16.5-34.8 4.3-2.3 8.5-2.9 8.5-1.3zM630.6 681.3l-2.6 3.4v70.1l3.2 3.1c4.1 4 6.3 3.9 10.4-.5l3.4-3.5v-35c0-22.6-.4-34.9-1-34.9-.5 0-1-.6-1-1.4 0-1.9-4.4-4.6-7.4-4.6-1.7 0-3.4 1.1-5 3.3zM239.7 680.7c-.3.2-1.5.6-2.8.7-3.9.5-8.2 1.7-11.6 3.2-1.7.8-3.5 1.4-4.1 1.4-1.9 0-15 13.7-16.7 17.6-.9 2.1-2.2 5-2.9 6.3-.6 1.3-1.1 6.5-1.1 11.6 0 8.5.6 11.5 3.6 16.5.5.8 1.4 2.5 1.9 3.8 1.5 3.5 11 12.5 15.5 14.6 2.2 1 5.2 2.5 6.7 3.2 3.6 1.9 22 1.9 25.6 0 1.5-.8 4.8-2.3 7.3-3.4 7.2-3.2 7.4-3.6 7.4-19.8 0-13.7-.1-14.3-2.4-16.8-2.4-2.5-2.9-2.6-14.1-2.6-11.3 0-11.8.1-14.4 2.6-3.3 3.3-3.4 7.3-.3 10.2 1.9 1.8 3.5 2.2 8.4 2.2h6l.2 5.4c.1 4.6-.3 5.7-2.1 7-2.9 2.1-13.6 2.1-16.2.1-1.1-.8-2.6-1.5-3.3-1.5-2.1 0-8.3-6.1-10.4-10.2-1.4-2.8-1.9-5.8-1.9-12.1 0-7.4.3-8.9 2.6-12.3 5.4-8.1 10.1-10.4 21.5-10.4 4.8 0 9.1.4 9.4 1 .9 1.4 6.7 1.2 8.6-.3 3-2.3 4.1-5.6 3-9-1.4-4-5.9-6-20.8-9-1.2-.3-2.4-.3-2.6 0zM319.5 682c-1.1.5-3.7.9-5.8.9-2 .1-4.5.5-5.5 1.1-.9.5-3.4 1.7-5.6 2.6-7.7 3.5-14.9 12.2-19.5 23.7-3.2 8.2.2 28.7 5.9 34.8.8.9 3.1 3.4 5.1 5.5 3.5 3.7 5.6 5 14.2 8.8 4.9 2.1 22 2.2 25.7.1 1.4-.8 3.3-1.4 4.3-1.5 2.1 0 3.8-1.5 5.5-4.7 1.4-2.5.7-4.9-2.1-8.1-2.4-2.6-9.1-3-12.1-.7-4.1 3.1-16.6.8-23.4-4.3-7.6-5.8-9.8-21.1-4.3-31.3 4-7.6 9.9-10.7 20.1-10.8 4.4-.1 8.1.4 8.7 1 1.9 1.9 8.9 1.6 11.2-.5 2.7-2.4 2.9-8.6.4-10.9-2.4-2-8.8-4.4-13.8-5-2.2-.3-4.7-.7-5.5-1-.8-.3-2.4-.2-3.5.3zM362.1 685.4c-3.2 3.4-2.5 7.4 1.8 10.3 3.2 2.1 4.4 2.3 18.2 2.3h14.8l-2.6 2.7c-1.4 1.6-5.1 6.2-8.1 10.3-3.1 4.1-5.9 7.7-6.2 8-.8.7-14 17.7-17.4 22.5-1.6 2.2-3.2 4.2-3.5 4.5-1.1.9-4.1 5.9-4.1 6.9 0 .5 1.5 2.6 3.4 4.5l3.3 3.6h51.1l3.1-2.5c4.1-3.6 4.7-5.9 2.1-9.5l-2.1-3h-18c-9.8 0-17.9-.3-17.9-.6 0-.4 1.9-3.1 4.3-5.9 2.3-2.9 5.1-6.5 6.2-8.1 1.1-1.5 3.4-4.4 5-6.5 1.7-2 4.1-5.2 5.5-7 1.4-1.8 3-3.7 3.5-4.3.6-.6 1.7-2 2.5-3.2.8-1.1 4.3-5.9 7.8-10.5 6.6-8.8 7.1-11.1 3.5-15.2-1.5-1.5-4.1-1.7-27.8-1.7h-26.2l-2.2 2.4zM553.7 684.8c-1.5 1.7-1.7 5.6-1.7 35.3-.1 18.4-.1 34.2 0 35.1 0 .9 1.5 2.6 3.4 3.7 3 1.9 4.9 2.1 17.6 2.1 13.9 0 28-2.1 28-4.2 0-.4.6-.8 1.3-.8.8 0 2.9-1.7 4.9-3.8 4.5-4.9 6.2-12.7 4.6-20.7-.9-4.6-1.9-6.4-6-10.4-4.9-4.9-4.9-4.9-2.8-6.4 3.5-2.4 5-6.5 5-13.2 0-5.1-.5-6.9-2.8-10.4-5.2-7.8-6.5-8.1-29.6-8.1-18.4 0-20.4.2-21.9 1.8zm36.1 14.4c1.9 1.9 1.5 9.2-.7 11.2-1.5 1.4-3.5 1.6-11.2 1.4l-9.3-.3.2-6.5c0-3.6.1-6.6.2-6.8 0-.1 4.4-.2 9.8-.2 6.3 0 10.2.4 11 1.2zm1.2 29.3c4.9 2.5 6.2 6.6 3.8 11.8-2.1 4.2-7 5.8-17.2 5.5l-8.8-.3-.2-9.3-.1-9.2h9.8c6.8 0 10.7.5 12.7 1.5zM679.5 700.4c-7.9 3-16.4 11.5-18 17.9-.4 1.5-1.1 3-1.6 3.3-1.6.9-1 14.4.9 19.7 2 5.9 10.7 15.4 16.2 17.6 1.9.8 7.3 1.6 12 1.9 7.7.3 9 .1 13.7-2.4 9-4.7 12.6-9.1 16.8-20.6 2.6-7.1.6-18-4.9-25.6-3.4-4.9-11.6-11.2-14.5-11.2-1.1 0-2.3-.5-2.6-1-.8-1.3-14.2-1.1-18 .4zm19.6 17.5c4.3 3.8 4.4 3.9 4.7 11.3.4 7.1.3 7.5-3 11.8l-3.4 4.5-7.2.3c-7.2.3-7.3.2-10.7-3.2-3.8-4-5.2-9.6-4-16.8.6-3.2 1.8-5.3 4.7-8.1 3.5-3.3 4.4-3.7 9.2-3.7 4.8 0 5.8.4 9.7 3.9zM752.6 699.9c-.3.4-1.8 1.1-3.4 1.4-3.3.7-14.2 11.8-14.2 14.5 0 .9-.7 2.6-1.5 3.6-2.1 2.7-2 17.7 0 21.7.8 1.6 2.3 4.4 3.2 6.1 2.4 4.7 6.1 8.3 11.5 11.2 7.9 4.4 19.7 3.4 26.1-2.2 2.4-2.1 3.1-.9 1.7 3.2-1.6 5-6.3 7.6-13.4 7.6-3.1 0-6.9-.6-8.4-1.4-1.5-.7-4.4-1.6-6.6-1.9-3.4-.5-4.2-.3-6.7 2.4-3.7 4-3.6 5.8.4 9.5 7.4 7 24.8 8.5 35.7 3 7-3.5 10.6-7 13.1-12.5 1.7-4 1.9-6.8 1.9-33.7v-29.3l-2.6-2c-3.9-3.1-7.7-2.7-10.8 1-2.6 3.1-2.7 3.1-4.7 1.3-1.1-1-3.7-2.4-5.7-3.1-4.2-1.4-14.8-1.7-15.6-.4zm17 16c1.7 1 4.1 3.7 5.2 6 3.8 7.2 2.5 14.8-3.6 21.3-2.3 2.5-3.3 2.8-9.2 2.8-5.9 0-6.9-.3-9.2-2.8-6.1-6.5-7.4-14.1-3.6-21.3 2.7-5.2 7-7.9 12.8-7.9 2.6 0 5.8.8 7.6 1.9z"/></svg>